<svg width="120" height="40" viewBox="0 0 120 40" fill="none" xmlns="http://www.w3.org/2000/svg">
  <!-- ARA Property Services Logo - Based on actual branding -->
  <rect width="120" height="40" rx="4" fill="#1B365D"/>
  
  <!-- ARA Text -->
  <text x="12" y="18" font-family="Arial, sans-serif" font-size="14" font-weight="bold" fill="white">ARA</text>
  
  <!-- Property Services Text -->  
  <text x="12" y="32" font-family="Arial, sans-serif" font-size="7" fill="#F39C12">PROPERTY SERVICES</text>
  
  <!-- Modern building icon representing facilities -->
  <rect x="80" y="8" width="6" height="24" rx="1" fill="#F39C12" opacity="0.9"/>
  <rect x="88" y="6" width="6" height="26" rx="1" fill="#F39C12"/>
  <rect x="96" y="10" width="6" height="22" rx="1" fill="#F39C12" opacity="0.8"/>
  <rect x="104" y="4" width="6" height="28" rx="1" fill="#F39C12" opacity="0.7"/>
  
  <!-- Windows/facilities details -->
  <rect x="81" y="12" width="4" height="2" rx="0.5" fill="#1B365D"/>
  <rect x="81" y="16" width="4" height="2" rx="0.5" fill="#1B365D"/>
  <rect x="81" y="20" width="4" height="2" rx="0.5" fill="#1B365D"/>
  <rect x="81" y="24" width="4" height="2" rx="0.5" fill="#1B365D"/>
  
  <rect x="89" y="10" width="4" height="2" rx="0.5" fill="#1B365D"/>
  <rect x="89" y="14" width="4" height="2" rx="0.5" fill="#1B365D"/>
  <rect x="89" y="18" width="4" height="2" rx="0.5" fill="#1B365D"/>
  <rect x="89" y="22" width="4" height="2" rx="0.5" fill="#1B365D"/>
  <rect x="89" y="26" width="4" height="2" rx="0.5" fill="#1B365D"/>
  
  <rect x="97" y="14" width="4" height="2" rx="0.5" fill="#1B365D"/>
  <rect x="97" y="18" width="4" height="2" rx="0.5" fill="#1B365D"/>
  <rect x="97" y="22" width="4" height="2" rx="0.5" fill="#1B365D"/>
  
  <rect x="105" y="8" width="4" height="2" rx="0.5" fill="#1B365D"/>
  <rect x="105" y="12" width="4" height="2" rx="0.5" fill="#1B365D"/>
  <rect x="105" y="16" width="4" height="2" rx="0.5" fill="#1B365D"/>
  <rect x="105" y="20" width="4" height="2" rx="0.5" fill="#1B365D"/>
  <rect x="105" y="24" width="4" height="2" rx="0.5" fill="#1B365D"/>
  <rect x="105" y="28" width="4" height="2" rx="0.5" fill="#1B365D"/>
</svg>
